
<svg version="1.0" xmlns="http://www.w3.org/2000/svg"
 width="512.000000pt" height="512.000000pt" viewBox="0 0 512.000000 512.000000"
 preserveAspectRatio="xMidYMid meet">

<g transform="translate(0.000000,512.000000) scale(0.100000,-0.100000)"
fill="#00000" stroke="none">
<path d="M2323 5110 c-598 -58 -1146 -316 -1571 -740 -702 -701 -934 -1735
-600 -2676 57 -160 179 -404 276 -549 80 -119 235 -315 250 -315 4 1 30 22 59
48 l51 47 -79 94 c-476 566 -663 1342 -499 2069 101 449 319 842 650 1172 383
384 837 609 1395 691 118 18 492 18 610 0 558 -82 1012 -307 1395 -691 384
-383 609 -837 691 -1395 18 -118 18 -492 0 -610 -82 -558 -307 -1012 -691
-1395 -438 -439 -989 -681 -1610 -706 -589 -25 -1182 177 -1631 555 l-94 79
-47 -51 c-26 -29 -47 -55 -48 -59 0 -4 44 -44 98 -89 479 -397 1104 -610 1724
-586 657 26 1253 285 1716 747 397 397 640 882 729 1460 24 161 24 539 0 700
-89 577 -330 1059 -727 1458 -394 395 -885 641 -1450 727 -125 19 -468 27
-597 15z"/>
<path d="M2040 4318 c0 -176 13 -220 78 -260 34 -21 51 -23 200 -27 l162 -3 0
-24 c0 -21 -4 -24 -40 -24 l-40 0 0 -75 0 -75 40 0 c36 0 40 -2 40 -25 0 -22
-4 -25 -40 -25 l-40 0 0 -75 0 -75 40 0 40 0 0 -345 c0 -249 -3 -345 -11 -345
-6 0 -38 -12 -71 -27 l-59 -26 -284 283 c-156 156 -282 287 -279 291 5 9 60
-6 78 -20 9 -8 27 4 64 42 50 50 52 54 35 69 -64 56 -182 76 -268 45 l-40 -15
-37 36 -38 36 119 121 c103 104 119 126 126 163 12 72 -7 107 -128 230 l-111
112 -53 -52 -53 -52 102 -103 103 -103 -105 -105 c-90 -91 -106 -103 -119 -91
-12 13 -12 20 -1 47 22 53 17 147 -11 203 -41 84 -139 146 -229 146 -133 0
-260 -127 -260 -260 0 -90 62 -188 146 -229 56 -28 150 -33 203 -11 27 11 34
11 47 -1 12 -13 0 -29 -91 -119 l-105 -105 -103 103 -103 102 -52 -53 -52 -53
112 -111 c123 -121 158 -140 230 -128 37 7 59 23 163 126 l121 119 36 -38 36
-37 -15 -40 c-31 -86 -11 -204 45 -268 15 -17 19 -15 69 35 38 37 50 55 42 64
-14 18 -29 73 -20 78 4 3 135 -123 291 -279 l283 -284 -26 -59 c-15 -33 -27
-65 -27 -71 0 -8 -148 -11 -544 -11 l-544 0 -3 163 c-4 148 -6 165 -27 199
-40 65 -84 78 -260 78 l-152 0 0 -75 0 -74 142 -3 143 -3 3 -32 3 -33 -145 0
-146 0 0 -75 0 -74 142 -3 143 -3 3 -32 3 -33 -145 0 -146 0 0 -80 0 -80 146
0 145 0 -3 -32 -3 -33 -143 -3 -142 -3 0 -74 0 -75 146 0 145 0 -3 -32 -3 -33
-143 -3 -142 -3 0 -74 0 -75 152 0 c176 0 220 13 260 78 21 34 23 51 27 200
l3 162 544 0 c396 0 544 -3 544 -11 0 -6 12 -38 27 -71 l26 -59 -229 -230
c-126 -126 -232 -229 -237 -229 -10 0 2 49 18 76 12 19 9 26 -39 73 -50 49
-53 51 -69 33 -54 -60 -76 -196 -44 -273 11 -27 12 -40 4 -48 -8 -8 -25 2 -62
39 l-51 50 -52 -53 -52 -53 50 -49 50 -49 -27 -28 -27 -28 -121 119 c-104 103
-126 119 -163 126 -72 12 -107 -7 -230 -128 l-112 -111 52 -53 52 -53 103 102
103 103 105 -105 c99 -98 104 -105 88 -122 -16 -18 -18 -17 -48 12 -17 16 -35
30 -41 30 -5 0 -32 -22 -59 -50 l-49 -50 34 -35 34 -35 -29 -30 -29 -31 52
-51 51 -52 31 29 30 29 35 -34 35 -34 50 49 c28 27 50 54 50 59 0 6 -14 24
-30 41 -29 30 -30 32 -12 48 17 16 24 11 122 -88 l105 -105 -103 -103 -102
-103 53 -52 53 -52 111 112 c121 123 140 158 128 230 -7 37 -23 59 -126 163
l-119 121 28 27 28 27 49 -50 49 -50 53 52 53 52 -50 51 c-37 37 -47 54 -39
62 8 8 21 7 48 -4 77 -32 213 -10 273 44 18 16 16 19 -33 69 -47 48 -54 51
-73 39 -27 -16 -76 -28 -76 -18 0 5 103 111 229 237 l230 229 59 -26 c33 -15
65 -27 71 -27 8 0 11 -148 11 -544 l0 -544 -162 -3 c-149 -4 -166 -6 -200 -27
-65 -40 -78 -84 -78 -260 l0 -152 75 0 74 0 3 143 3 142 143 3 c122 2 142 0
142 -13 0 -12 -13 -15 -57 -16 -130 -1 -163 -37 -163 -176 l0 -83 74 0 75 0 3
52 c3 52 4 53 36 56 l32 3 0 -55 0 -56 80 0 80 0 0 56 0 55 33 -3 c31 -3 32
-4 35 -56 l3 -52 75 0 74 0 0 83 c0 139 -33 175 -162 176 -45 1 -58 4 -58 16
0 13 20 15 143 13 l142 -3 3 -142 3 -143 74 0 75 0 0 152 c0 176 -13 220 -78
260 -34 21 -51 23 -199 27 l-163 3 0 544 c0 396 3 544 11 544 6 0 38 12 71 27
l59 26 250 -249 249 -248 -30 -31 -30 -31 53 -52 53 -52 29 30 c26 27 31 29
44 15 13 -13 12 -18 -14 -45 l-29 -31 52 -51 51 -52 30 28 c26 25 33 27 46 16
14 -11 0 -28 -103 -134 -104 -105 -120 -127 -127 -164 -12 -72 7 -107 128
-230 l111 -112 53 52 53 52 -102 103 -103 103 105 105 105 105 102 -102 103
-103 52 53 53 52 -103 103 -102 102 105 105 105 105 103 -103 103 -102 47 48
c26 26 47 52 47 58 0 6 -48 58 -107 116 -118 115 -154 135 -225 123 -37 -7
-59 -23 -164 -127 -106 -103 -123 -117 -134 -103 -11 13 -9 20 16 46 l28 30
-52 51 -51 52 -31 -29 c-27 -26 -32 -27 -45 -14 -14 13 -12 18 15 44 l30 29
-52 53 -52 53 -31 -30 -31 -30 -248 249 -249 250 26 59 c15 33 27 65 27 71 0
8 72 11 250 11 248 0 251 0 240 -20 -6 -11 -22 -27 -35 -36 -23 -15 -25 -23
-25 -91 l0 -75 33 7 c71 16 141 74 170 142 8 21 19 47 24 58 5 13 9 -9 11 -67
l3 -88 74 0 75 0 1 83 0 82 18 -45 c35 -86 105 -147 189 -165 l32 -7 0 74 c0
70 -1 74 -29 90 -16 9 -34 26 -40 37 -11 20 -9 21 43 21 l54 0 3 -162 c4 -149
6 -166 27 -200 40 -65 84 -78 260 -78 l152 0 0 75 0 74 -142 3 -143 3 -3 143
-3 142 146 0 145 0 0 80 0 80 -145 0 -146 0 3 143 3 142 143 3 142 3 0 74 0
75 -152 0 c-176 0 -220 -13 -260 -78 -21 -34 -23 -51 -27 -199 l-3 -163 -54 0
c-52 0 -54 1 -43 21 6 11 24 28 40 37 28 16 29 20 29 90 l0 74 -32 -7 c-84
-18 -163 -87 -192 -168 l-14 -42 -1 83 -1 82 -75 0 -74 0 -3 -87 c-2 -59 -6
-81 -11 -68 -5 11 -16 37 -24 58 -29 68 -99 126 -170 142 l-33 7 0 -75 c0 -68
2 -76 25 -91 13 -9 29 -25 35 -36 11 -20 8 -20 -240 -20 -178 0 -250 3 -250
11 0 6 -12 38 -27 71 l-26 59 189 190 c104 104 192 189 196 189 15 0 8 -55
-13 -99 l-20 -45 50 -50 c58 -58 65 -56 108 33 34 69 38 170 10 240 -26 63
-12 70 63 37 77 -35 168 -37 228 -7 23 11 44 26 48 32 3 6 -15 32 -41 59 -42
43 -51 48 -81 43 -18 -3 -50 -2 -70 2 l-37 6 68 69 69 69 121 -118 c104 -103
126 -119 163 -126 72 -12 107 7 230 128 l112 111 -52 53 -52 53 -103 -102
-103 -103 -105 105 -105 105 102 102 103 103 -53 52 -52 53 -103 -103 -102
-102 -105 105 -105 105 103 103 102 103 -53 52 -53 52 -111 -112 c-121 -123
-140 -158 -128 -230 7 -37 23 -59 126 -163 l118 -121 -69 -69 -69 -68 -6 37
c-4 20 -5 52 -2 70 5 30 0 39 -43 81 -27 26 -53 44 -59 41 -6 -4 -21 -26 -32
-48 -31 -61 -28 -150 7 -228 16 -36 23 -64 18 -70 -5 -5 -34 0 -69 12 -76 26
-155 20 -230 -16 -85 -42 -87 -49 -28 -108 l50 -50 41 21 c40 20 102 29 102
13 0 -4 -85 -92 -189 -196 l-190 -189 -59 26 c-33 15 -65 27 -71 27 -8 0 -11
96 -11 345 l0 345 40 0 40 0 0 75 0 75 -40 0 c-36 0 -40 3 -40 25 0 23 4 25
40 25 l40 0 0 75 0 75 -40 0 c-36 0 -40 3 -40 24 l0 24 163 3 c148 4 165 6
199 27 65 40 78 84 78 260 l0 152 -75 0 -74 0 -3 -142 -3 -143 -142 -3 -143
-3 0 146 0 145 -80 0 -80 0 0 -145 0 -146 -142 3 -143 3 -3 143 -3 142 -74 0
-75 0 0 -152z m-785 -314 c65 -31 80 -117 29 -168 -53 -52 -137 -36 -170 32
-24 51 -4 109 46 134 43 22 53 22 95 2z m1400 -1223 c88 -40 145 -126 145
-221 0 -213 -258 -320 -409 -169 -151 151 -44 409 169 409 32 0 72 -8 95 -19z"/>
<path d="M4562 1753 c-6 -16 -17 -45 -26 -65 l-16 -38 67 -30 c36 -17 67 -29
69 -28 7 8 54 122 54 132 0 9 -110 56 -132 56 -3 0 -11 -12 -16 -27z"/>
<path d="M4441 1499 c-27 -50 -31 -63 -20 -70 8 -5 37 -22 65 -39 l50 -29 37
67 36 67 -62 33 c-35 17 -65 32 -68 32 -2 0 -20 -28 -38 -61z"/>
<path d="M4282 1258 c-201 -266 -461 -482 -767 -635 -38 -20 -71 -37 -73 -38
-2 -2 10 -33 27 -70 l31 -67 127 67 c134 69 260 151 378 243 109 86 313 296
398 411 l77 104 -57 39 c-32 21 -61 38 -65 38 -4 0 -38 -42 -76 -92z"/>
</g>
</svg>
